<?xml version="1.0" standalone="no"?>
<!DOCTYPE svg PUBLIC "-//W3C//DTD SVG 20010904//EN"
 "http://www.w3.org/TR/2001/REC-SVG-20010904/DTD/svg10.dtd">
<svg version="1.0" xmlns="http://www.w3.org/2000/svg"
 width="1536.000000pt" height="1536.000000pt" viewBox="0 0 1536.000000 1536.000000"
 preserveAspectRatio="xMidYMid meet">

<g transform="translate(0.000000,1536.000000) scale(0.100000,-0.100000)"
fill="#000000" stroke="none">
<path d="M7410 14554 c-1072 -43 -2130 -338 -3069 -859 -171 -94 -235 -153
-286 -260 -55 -115 -67 -209 -41 -315 42 -168 144 -285 301 -346 39 -15 76
-19 171 -19 l122 0 118 61 c66 33 200 102 299 152 665 339 1402 546 2185 614
187 16 729 16 935 -1 1128 -90 2211 -501 3105 -1180 398 -301 820 -720 1123
-1114 696 -903 1117 -1998 1208 -3142 17 -206 17 -724 0 -930 -90 -1128 -501
-2211 -1180 -3105 -301 -398 -720 -820 -1114 -1123 -903 -696 -1998 -1117
-3142 -1208 -206 -17 -724 -17 -930 0 -1144 91 -2239 512 -3142 1208 -394 303
-813 725 -1114 1123 -679 894 -1090 1977 -1180 3105 -17 206 -17 748 -1 935
46 533 159 1053 333 1535 102 285 224 554 397 878 92 172 107 226 100 355 -13
215 -150 374 -368 428 -107 26 -201 13 -316 -43 -109 -52 -165 -114 -259 -284
-475 -856 -761 -1805 -842 -2784 -20 -251 -23 -845 -5 -1060 54 -626 150
-1104 334 -1665 205 -626 544 -1294 916 -1810 465 -644 988 -1167 1632 -1632
516 -372 1184 -711 1810 -916 739 -243 1388 -346 2170 -346 369 0 507 8 860
49 990 117 2030 496 2881 1050 799 521 1513 1235 2034 2034 304 467 579 1041
753 1571 242 738 346 1389 346 2170 0 369 -8 507 -49 860 -129 1088 -576 2237
-1213 3120 -729 1009 -1671 1788 -2762 2282 -614 279 -1322 482 -1950 559
-363 44 -839 66 -1170 53z"/>
<path d="M7595 10070 c-115 -25 -193 -68 -264 -146 -56 -61 -72 -87 -105 -173
-20 -55 -21 -68 -24 -823 l-3 -767 -767 -3 -767 -3 -59 -23 c-89 -33 -138 -65
-195 -128 -90 -98 -126 -194 -125 -329 2 -143 49 -252 150 -344 61 -56 87 -72
173 -105 55 -20 68 -21 823 -24 l767 -3 3 -767 3 -767 23 -59 c33 -89 65 -138
128 -195 96 -88 193 -125 324 -125 131 0 228 37 324 125 63 57 95 106 128 195
l23 59 3 767 3 767 767 3 c755 3 768 4 823 24 86 33 112 49 173 105 101 92
148 201 150 344 1 135 -35 231 -125 329 -57 63 -106 95 -195 128 l-59 23 -767
3 -767 3 -3 767 c-3 755 -4 768 -24 823 -33 86 -49 112 -105 173 -58 64 -109
97 -195 126 -68 24 -181 33 -239 20z"/>
</g>
</svg>
